<?xml version="1.0" encoding="UTF-8"?>
<svg xmlns="http://www.w3.org/2000/svg" width="512px" height="512px"
	 viewBox="0 0 512 512" version="1.1">
	<g id="surface1">
		<path style=" stroke:none;fill-rule:nonzero;fill:#4ADE80;fill-opacity:1;"
			  d="M 242.558594 40.933594 C 242.347656 41.023438 238.976562 41.339844 235.09375 41.652344 C 231.210938 41.921875 227.542969 42.367188 226.945312 42.636719 C 226.304688 42.859375 224.382812 43.21875 222.675781 43.441406 C 216.492188 44.160156 209.152344 45.726562 206.632812 46.847656 C 205.910156 47.203125 204.886719 47.472656 204.414062 47.472656 C 203.179688 47.472656 197.289062 49.265625 193.921875 50.652344 C 193.449219 50.832031 192.597656 51.144531 192 51.28125 C 190.933594 51.550781 188.671875 52.445312 186.238281 53.519531 C 185.558594 53.832031 184.105469 54.460938 183.039062 54.863281 C 179.328125 56.386719 168.277344 61.941406 165.761719 63.597656 C 164.820312 64.179688 163.285156 65.121094 162.347656 65.613281 C 161.40625 66.105469 159.871094 67 158.933594 67.628906 C 157.953125 68.253906 156.886719 68.925781 156.5 69.195312 C 154.710938 70.359375 145.40625 77.121094 145.066406 77.480469 C 144.9375 77.613281 144.171875 78.242188 143.359375 78.824219 C 136.832031 83.527344 120.148438 100.410156 114.132812 108.382812 C 112.769531 110.21875 111.488281 111.832031 111.359375 111.964844 C 110.378906 112.816406 101.375 126.296875 100.566406 128.089844 C 100.394531 128.449219 99.882812 129.34375 99.414062 130.105469 C 98.945312 130.820312 98.132812 132.34375 97.578125 133.464844 C 97.066406 134.582031 96.128906 136.285156 95.53125 137.269531 C 94.933594 138.257812 94.121094 139.957031 93.652344 141.078125 C 93.183594 142.199219 92.289062 144.167969 91.648438 145.464844 C 91.007812 146.765625 90.453125 148.109375 90.453125 148.421875 C 90.453125 148.734375 90.15625 149.273438 89.8125 149.585938 C 89.472656 149.902344 89.171875 150.75 89.171875 151.46875 L 89.171875 152.8125 L 91.5625 152.5 C 92.84375 152.363281 95.574219 151.648438 97.621094 150.929688 C 99.667969 150.257812 103.125 149.320312 105.300781 148.871094 C 109.3125 148.109375 109.996094 147.660156 111.0625 145.109375 C 111.230469 144.75 111.703125 143.898438 112.128906 143.226562 C 123.5625 124.238281 131.710938 113.980469 146.773438 99.605469 C 149.121094 97.367188 161.023438 87.78125 161.449219 87.78125 C 161.578125 87.78125 163.070312 86.796875 164.777344 85.632812 C 168.0625 83.347656 172.714844 80.480469 175.574219 79.046875 C 176.511719 78.554688 177.535156 77.882812 177.835938 77.570312 C 178.132812 77.300781 178.601562 77.03125 178.816406 77.03125 C 179.03125 77.03125 180.949219 76.136719 183.125 75.0625 C 185.300781 73.988281 187.777344 72.867188 188.585938 72.554688 C 189.398438 72.242188 190.847656 71.613281 191.785156 71.164062 C 196.054688 69.238281 196.652344 68.972656 197.289062 68.972656 C 197.632812 68.972656 198.570312 68.703125 199.339844 68.34375 C 202.238281 67.046875 204.246094 66.375 207.359375 65.613281 C 209.109375 65.210938 211.328125 64.582031 212.265625 64.269531 C 214.398438 63.507812 219.09375 62.523438 224.851562 61.582031 C 227.328125 61.179688 230.699219 60.640625 232.320312 60.328125 C 234.238281 59.96875 240.511719 59.789062 250.027344 59.789062 C 259.542969 59.789062 265.8125 59.96875 267.734375 60.328125 C 269.398438 60.640625 272.726562 61.179688 275.199219 61.582031 C 277.675781 61.984375 280.535156 62.523438 281.601562 62.746094 C 286.335938 63.820312 287.0625 64 288.042969 64.449219 C 288.597656 64.671875 290.515625 65.210938 292.265625 65.613281 C 294.015625 66.058594 296.105469 66.640625 296.875 67 C 297.644531 67.359375 298.453125 67.628906 298.710938 67.628906 C 298.964844 67.628906 299.777344 67.894531 300.5 68.210938 C 301.269531 68.566406 303.019531 69.195312 304.425781 69.644531 C 305.835938 70.089844 307.371094 70.71875 307.839844 70.988281 C 308.308594 71.300781 309.84375 71.925781 311.253906 72.464844 C 313.644531 73.316406 317.3125 75.105469 320.851562 77.03125 C 321.664062 77.480469 323.371094 78.421875 324.652344 79.046875 C 325.886719 79.71875 328.148438 81.019531 329.683594 82.003906 C 331.179688 82.945312 332.457031 83.75 332.585938 83.75 C 332.671875 83.75 334.039062 84.691406 335.660156 85.855469 C 337.238281 86.976562 339.925781 88.945312 341.632812 90.109375 C 343.296875 91.320312 345.515625 93.066406 346.539062 94.007812 C 347.5625 94.902344 349.609375 96.648438 351.148438 97.859375 C 357.289062 102.695312 372.863281 120.164062 377.34375 127.195312 C 378.070312 128.3125 378.835938 129.386719 379.09375 129.65625 C 379.347656 129.882812 380.628906 131.808594 381.910156 133.910156 C 385.324219 139.421875 385.792969 140.226562 386.6875 141.929688 C 389.460938 147.257812 390.230469 148.0625 392.960938 148.421875 C 395.519531 148.78125 400.042969 149.945312 401.023438 150.527344 C 402.21875 151.15625 405.929688 152.183594 408.234375 152.5 C 410.410156 152.8125 410.453125 152.765625 410.453125 151.691406 C 410.453125 150.617188 407.550781 143.585938 405.71875 140.183594 C 405.289062 139.332031 404.394531 137.496094 403.753906 136.152344 C 403.15625 134.808594 402.515625 133.597656 402.347656 133.464844 C 402.175781 133.328125 401.621094 132.34375 401.023438 131.226562 C 400.46875 130.105469 399.488281 128.492188 398.847656 127.597656 C 398.164062 126.703125 397.652344 125.804688 397.652344 125.671875 C 397.652344 125.222656 392.363281 117.027344 389.972656 113.800781 C 389.503906 113.175781 388.652344 112.011719 388.140625 111.203125 C 387.199219 109.863281 383.828125 105.785156 379.09375 100.320312 C 376.535156 97.367188 370.21875 90.78125 368.171875 88.902344 C 362.921875 84.0625 360.40625 81.914062 354.859375 77.613281 C 346.324219 70.988281 339.5 66.417969 331.734375 62.253906 C 329.855469 61.222656 328.019531 60.238281 327.679688 60.015625 C 326.742188 59.433594 319.230469 55.804688 317.011719 54.910156 C 315.945312 54.460938 314.324219 53.742188 313.386719 53.296875 C 312.449219 52.847656 310.996094 52.265625 310.1875 51.996094 C 309.375 51.773438 307.242188 51.011719 305.492188 50.339844 C 301.738281 48.996094 298.410156 48.011719 295.59375 47.472656 C 294.441406 47.25 293.289062 46.9375 293.035156 46.710938 C 292.265625 46.21875 288.339844 45.277344 284.800781 44.742188 C 283.179688 44.519531 281.257812 44.113281 280.574219 43.890625 C 279.894531 43.621094 278.65625 43.441406 277.800781 43.441406 C 276.949219 43.441406 275.585938 43.21875 274.773438 42.949219 C 272.085938 42.144531 261.546875 41.203125 252.160156 40.980469 C 247.125 40.84375 242.816406 40.84375 242.558594 40.933594 Z M 242.558594 40.933594 "/>
		<path style=" stroke:none;fill-rule:nonzero;fill:#4ADE80;fill-opacity:1;"
			  d="M 241.195312 103.769531 C 240.640625 103.859375 239.359375 104.800781 238.292969 105.832031 C 236.117188 107.890625 235.476562 109.816406 236.03125 112.414062 C 236.289062 113.800781 236.203125 114.117188 235.09375 115.101562 C 231.980469 117.96875 230.015625 119.582031 229.71875 119.582031 C 229.546875 119.582031 228.863281 119.042969 228.222656 118.414062 C 226.644531 116.847656 225.535156 117.296875 224.425781 119.9375 C 223.703125 121.640625 223.574219 122.582031 223.785156 124.730469 C 224.085938 127.957031 224.085938 130.015625 223.742188 139.6875 C 223.53125 146.988281 223.488281 147.078125 222.25 148.648438 C 221.226562 149.988281 221.011719 150.617188 221.011719 152.722656 C 221.011719 154.109375 221.398438 156.484375 221.910156 158.007812 C 222.632812 160.246094 223.230469 161.140625 224.980469 162.753906 C 226.859375 164.410156 227.328125 165.171875 227.96875 167.457031 C 228.351562 168.933594 228.691406 170.546875 228.691406 171.085938 C 228.691406 172.605469 230.65625 175.382812 233.472656 177.800781 C 234.964844 179.058594 236.886719 180.757812 237.824219 181.519531 C 238.71875 182.324219 239.660156 183.042969 239.957031 183.132812 C 240.214844 183.222656 241.066406 183.847656 241.878906 184.476562 C 243.542969 185.820312 249.386719 188.550781 250.539062 188.550781 C 252.96875 188.550781 262.316406 182.238281 267.5625 177.042969 C 269.953125 174.667969 272.214844 170.234375 272.214844 167.90625 C 272.214844 165.351562 272.8125 164.144531 274.945312 162.621094 C 277.800781 160.515625 278.65625 159.035156 278.953125 155.273438 C 279.425781 150.257812 279.082031 148.691406 277.375 147.480469 L 275.96875 146.496094 L 275.882812 132.746094 L 275.839844 118.996094 L 274.730469 118.101562 C 273.621094 117.25 273.535156 117.25 272.257812 118.058594 C 271.1875 118.730469 270.761719 118.773438 270.164062 118.371094 C 266.324219 115.550781 261.417969 113.308594 259.03125 113.308594 C 257.707031 113.308594 252.96875 111.964844 252.289062 111.382812 C 251.988281 111.160156 251.734375 110.445312 251.734375 109.773438 C 251.734375 107.398438 247.59375 104.082031 244.179688 103.726562 C 243.070312 103.636719 241.707031 103.636719 241.195312 103.769531 Z M 257.324219 133.0625 C 257.75 133.285156 258.945312 133.464844 260.054688 133.464844 C 262.144531 133.464844 264.960938 134.449219 264.960938 135.210938 C 264.960938 135.433594 264.148438 135.75 263.167969 135.882812 C 262.144531 136.015625 260.566406 136.242188 259.625 136.375 C 252.03125 137.539062 250.324219 137.585938 245.675781 137.089844 C 243.03125 136.777344 239.914062 136.464844 238.71875 136.332031 C 232.789062 135.75 233.429688 134.492188 240.214844 133.417969 C 241.960938 133.105469 244.265625 132.746094 245.332031 132.523438 C 247.679688 132.121094 256.296875 132.480469 257.324219 133.0625 Z M 257.324219 133.0625 "/>
		<path style=" stroke:none;fill-rule:nonzero;fill:#4ADE80;fill-opacity:1;"
			  d="M 390.1875 161.589844 C 385.664062 161.859375 386.132812 155.453125 386.132812 218.109375 L 386.132812 273.0625 L 387.03125 273.914062 C 387.796875 274.632812 388.609375 274.765625 392.40625 274.765625 C 396.886719 274.765625 396.886719 274.765625 397.910156 273.421875 L 398.933594 272.078125 L 398.933594 163.605469 L 397.996094 162.710938 C 396.929688 161.722656 394.410156 161.320312 390.1875 161.589844 Z M 390.1875 161.589844 "/>
		<path style=" stroke:none;fill-rule:nonzero;fill:#4ADE80;fill-opacity:1;"
			  d="M 102.953125 162.53125 L 101.972656 163.382812 L 101.972656 272.707031 L 103.082031 273.601562 C 104.0625 274.40625 104.832031 274.542969 108.03125 274.542969 C 111.230469 274.542969 112.085938 274.40625 113.109375 273.601562 L 114.347656 272.660156 L 114.261719 218.019531 L 114.132812 163.382812 L 113.109375 162.53125 C 111.660156 161.277344 104.363281 161.320312 102.953125 162.53125 Z M 102.953125 162.53125 "/>
		<path style=" stroke:none;fill-rule:nonzero;fill:#4ADE80;fill-opacity:1;"
			  d="M 124.457031 162.484375 C 123.777344 163.246094 123.734375 167.726562 123.734375 217.976562 L 123.734375 272.617188 L 124.714844 273.554688 C 125.566406 274.40625 126.207031 274.542969 129.707031 274.542969 C 133.289062 274.542969 133.800781 274.453125 135.082031 273.421875 L 136.535156 272.257812 L 136.617188 243.726562 L 136.746094 215.199219 L 147.199219 215.066406 C 160.171875 214.886719 162.902344 215.109375 163.414062 216.453125 C 163.839844 217.664062 167.210938 222.902344 169.683594 226.21875 C 173.398438 231.277344 176.9375 235.980469 178.730469 238.308594 C 179.710938 239.652344 181.164062 241.535156 181.929688 242.472656 C 183.550781 244.625 186.667969 247.714844 187.863281 248.429688 C 189.695312 249.507812 190.550781 249.28125 195.839844 246.011719 C 196.90625 245.386719 200.0625 243.011719 202.878906 240.816406 C 208.171875 236.652344 208.382812 236.472656 211.667969 233.382812 C 212.734375 232.351562 213.84375 231.546875 214.058594 231.546875 C 214.273438 231.546875 214.785156 232.21875 215.125 232.980469 C 215.464844 233.785156 216.148438 235.265625 216.574219 236.25 C 217.003906 237.234375 217.515625 238.128906 217.644531 238.265625 C 217.8125 238.398438 218.453125 239.472656 219.050781 240.726562 C 219.691406 241.9375 220.585938 243.550781 221.054688 244.3125 C 222.804688 247.222656 222.804688 247.402344 222.507812 261.777344 L 222.207031 275.660156 L 218.625 281.347656 C 216.660156 284.441406 214.828125 287.53125 214.570312 288.15625 C 214.273438 288.785156 213.886719 289.320312 213.71875 289.320312 C 213.417969 289.320312 212.734375 291.605469 212.949219 292.007812 C 213.164062 292.367188 214.230469 292.007812 216.746094 290.800781 C 218.027344 290.128906 219.863281 289.589844 220.800781 289.589844 C 222.378906 289.546875 222.507812 289.632812 222.421875 290.664062 C 222.164062 293.171875 222.25 300.160156 222.507812 300.429688 C 222.976562 300.921875 223.574219 299.441406 223.574219 297.695312 C 223.574219 294.5625 227.5 288.15625 231.339844 285.066406 C 232.875 283.8125 237.738281 281.347656 240 280.675781 C 241.40625 280.230469 243.15625 279.691406 243.925781 279.421875 C 244.949219 279.109375 245.886719 279.15625 247.765625 279.738281 C 250.582031 280.585938 251.945312 281.574219 253.183594 283.632812 C 253.996094 284.976562 254.039062 285.917969 254.207031 302.535156 C 254.335938 319.730469 254.378906 320 255.273438 320.761719 C 255.742188 321.164062 256.851562 321.613281 257.707031 321.746094 C 258.515625 321.882812 261.078125 323.269531 263.382812 324.882812 C 272.339844 331.0625 277.886719 331.152344 285.398438 325.238281 C 287.660156 323.492188 290.988281 318.878906 291.96875 316.148438 C 292.523438 314.535156 293.503906 309.386719 293.589844 307.460938 C 293.632812 306.652344 292.308594 298.996094 291.839844 297.160156 C 290.773438 293.128906 287.617188 287.484375 282.070312 279.691406 C 281.34375 278.707031 280.449219 277.40625 280.019531 276.78125 C 279.082031 275.480469 278.699219 269.660156 278.65625 256.042969 C 278.613281 246.371094 278.699219 245.789062 280.574219 243.191406 C 281.128906 242.429688 283.863281 237.191406 285.3125 234.097656 C 285.867188 232.933594 286.421875 231.996094 286.550781 231.996094 C 286.675781 231.996094 288.382812 233.515625 290.347656 235.351562 C 292.351562 237.191406 294.144531 238.710938 294.316406 238.710938 C 294.527344 238.710938 295.167969 239.203125 295.765625 239.789062 C 296.363281 240.324219 297.601562 241.308594 298.496094 241.847656 C 299.433594 242.429688 300.246094 243.058594 300.375 243.234375 C 300.5 243.371094 301.867188 244.445312 303.488281 245.566406 C 306.816406 247.984375 309.972656 249.28125 311.464844 248.878906 C 312.789062 248.519531 316.457031 245.296875 318.039062 243.191406 C 318.632812 242.339844 320.214844 240.324219 321.492188 238.710938 C 322.773438 237.101562 325.800781 233.070312 328.191406 229.753906 C 330.625 226.441406 332.800781 223.484375 333.054688 223.261719 C 333.269531 222.992188 334.421875 221.289062 335.574219 219.453125 C 336.683594 217.617188 337.921875 215.828125 338.261719 215.511719 C 338.773438 215.109375 341.929688 214.976562 350.804688 214.976562 C 362.070312 214.976562 362.667969 215.019531 363.09375 215.828125 C 363.347656 216.410156 363.519531 225.992188 363.519531 243.773438 C 363.519531 271.675781 363.605469 273.199219 365.226562 274.09375 C 365.652344 274.363281 367.828125 274.542969 370.003906 274.542969 C 373.121094 274.542969 374.1875 274.363281 374.910156 273.734375 L 375.808594 272.972656 L 375.980469 218.289062 C 376.105469 164.992188 376.105469 163.558594 375.296875 162.621094 C 374.570312 161.769531 374.015625 161.679688 370.132812 161.679688 C 365.78125 161.679688 365.652344 161.722656 363.863281 163.605469 C 363.820312 163.648438 363.648438 172.25 363.519531 182.730469 L 363.308594 201.761719 L 329.855469 201.988281 C 303.617188 202.167969 296.363281 202.34375 296.191406 202.75 C 296.105469 203.0625 296.234375 203.332031 296.449219 203.332031 C 297.128906 203.332031 301.054688 209.199219 301.609375 211.035156 C 301.910156 211.929688 302.507812 213.183594 302.976562 213.8125 L 303.828125 214.976562 L 315.136719 214.976562 C 323.882812 214.976562 326.398438 215.109375 326.398438 215.511719 C 326.398438 216.09375 325.289062 217.394531 318.761719 224.648438 C 313.8125 230.113281 312.535156 231.679688 311.9375 232.84375 C 311.210938 234.1875 310.484375 233.515625 308.820312 229.980469 C 308.136719 228.5 307.199219 226.664062 306.773438 225.949219 C 306.304688 225.1875 305.75 224.203125 305.492188 223.707031 C 304.894531 222.453125 304.042969 221.066406 303.742188 220.796875 C 303.574219 220.664062 302.890625 219.320312 302.164062 217.84375 C 297.300781 207.226562 290.945312 200.015625 284.160156 197.375 C 283.09375 196.972656 281.8125 196.613281 281.300781 196.613281 C 280.492188 196.613281 277.417969 195.761719 274.558594 194.777344 C 273.878906 194.507812 271.574219 193.835938 269.441406 193.296875 C 263.636719 191.730469 261.972656 190.386719 261.972656 187.34375 C 261.972656 186.355469 261.84375 186.265625 260.820312 186.492188 C 260.136719 186.671875 259.15625 187.164062 258.558594 187.566406 C 256.296875 189.222656 252.289062 190.789062 250.324219 190.789062 C 248.320312 190.789062 244.566406 189.445312 241.878906 187.789062 C 240.511719 186.9375 239.105469 186.3125 238.761719 186.445312 C 238.421875 186.582031 238.039062 187.296875 237.867188 188.058594 C 237.441406 190.207031 235.050781 191.820312 230.1875 193.296875 C 228.777344 193.703125 227.070312 194.328125 226.347656 194.640625 C 225.664062 194.957031 223.828125 195.539062 222.292969 195.941406 C 213.761719 198.226562 210.859375 199.792969 206.59375 204.449219 C 203.605469 207.71875 202.410156 209.421875 199.851562 214.167969 C 199.339844 215.109375 198.484375 216.5 197.929688 217.304688 C 197.332031 218.109375 196.394531 219.722656 195.839844 220.886719 C 195.242188 222.097656 194.644531 223.035156 194.515625 223.035156 C 194.390625 223.035156 193.878906 223.886719 193.324219 224.917969 C 192.8125 225.992188 192 227.425781 191.574219 228.1875 C 191.105469 228.902344 190.464844 230.203125 190.121094 230.964844 C 189.355469 232.753906 188.5 232.84375 187.519531 231.277344 C 187.136719 230.652344 186.496094 229.800781 186.113281 229.351562 C 185.726562 228.949219 184.617188 227.695312 183.722656 226.621094 C 182.785156 225.5 180.394531 222.722656 178.390625 220.441406 C 176.382812 218.109375 174.675781 216.09375 174.59375 215.917969 C 174.464844 215.511719 183.339844 214.976562 190.335938 214.976562 C 193.621094 214.976562 195.457031 214.796875 195.925781 214.394531 C 196.566406 213.855469 199.253906 209.78125 199.253906 209.332031 C 199.253906 209.199219 200.234375 207.765625 201.386719 206.152344 C 202.582031 204.496094 203.476562 202.972656 203.390625 202.703125 C 203.265625 202.34375 193.109375 202.167969 169.898438 202.078125 L 136.535156 201.988281 L 136.535156 164.546875 L 135.296875 163.113281 L 134.015625 161.679688 L 129.578125 161.679688 C 125.824219 161.679688 125.054688 161.8125 124.457031 162.484375 Z M 124.457031 162.484375 "/>
		<path style=" stroke:none;fill-rule:nonzero;fill:#4ADE80;fill-opacity:1;"
			  d="M 70.828125 169.832031 C 68.394531 171.980469 68.480469 171.308594 68.265625 187.609375 L 68.054688 202.660156 L 53.71875 202.882812 C 42.964844 203.0625 39.210938 203.242188 38.742188 203.6875 C 37.589844 204.675781 37.121094 207.945312 37.121094 214.75 L 37.121094 221.335938 L 38.355469 222.632812 L 39.59375 223.933594 L 53.207031 223.933594 C 63.230469 223.933594 66.945312 224.066406 67.328125 224.46875 C 67.710938 224.875 67.839844 231.1875 67.839844 250.132812 C 67.839844 281.484375 68.097656 289.140625 69.207031 290.304688 C 70.527344 291.695312 72.917969 291.335938 77.054688 289.097656 C 79.0625 287.976562 80.894531 287.082031 81.109375 287.082031 C 81.324219 287.082031 82.859375 286.367188 84.523438 285.515625 C 86.1875 284.664062 87.851562 283.945312 88.191406 283.945312 C 88.535156 283.945312 89.8125 283.453125 91.007812 282.871094 C 92.246094 282.289062 94.121094 281.394531 95.273438 280.902344 C 97.367188 279.917969 97.835938 279.15625 96.554688 278.75 C 95.703125 278.484375 91.347656 276.378906 91.265625 276.199219 C 91.222656 276.152344 91.136719 253.222656 91.050781 225.277344 C 90.964844 197.328125 90.792969 173.816406 90.667969 173.101562 C 90.539062 172.339844 90.027344 171.265625 89.558594 170.636719 C 88.660156 169.515625 88.617188 169.515625 80.042969 169.382812 C 73.472656 169.292969 71.296875 169.382812 70.828125 169.832031 Z M 87.464844 201.761719 L 87.464844 206.914062 L 86.316406 207.183594 C 85.632812 207.316406 84.179688 207.71875 82.988281 208.078125 C 77.441406 209.644531 75.5625 210.050781 74.113281 210.050781 C 72.320312 210.050781 72.277344 209.960938 71.9375 204.585938 C 71.765625 201.628906 71.851562 201.046875 72.574219 200.242188 C 73.046875 199.703125 73.726562 199.300781 74.113281 199.300781 C 74.453125 199.300781 75.648438 198.988281 76.757812 198.628906 C 80.085938 197.507812 83.753906 196.65625 85.675781 196.65625 L 87.464844 196.613281 Z M 87.464844 201.761719 "/>
		<path style=" stroke:none;fill-rule:nonzero;fill:#4ADE80;fill-opacity:1;"
			  d="M 412.585938 169.605469 C 412.246094 169.742188 411.648438 170.324219 411.222656 170.816406 C 410.539062 171.710938 410.496094 174.890625 410.453125 223.574219 L 410.453125 275.394531 L 409.515625 276.0625 C 409.003906 276.46875 407.894531 276.914062 407.039062 277.050781 C 406.230469 277.230469 405.164062 277.542969 404.691406 277.8125 C 404.222656 278.078125 403.070312 278.4375 402.132812 278.617188 C 397.609375 279.511719 393.683594 280.410156 387.199219 282.109375 C 386.261719 282.378906 383.957031 282.871094 382.078125 283.273438 C 380.203125 283.679688 378.113281 284.171875 377.386719 284.441406 C 376.019531 284.976562 374.785156 285.246094 369.066406 286.367188 C 367.0625 286.769531 364.886719 287.304688 364.203125 287.53125 C 363.519531 287.796875 362.453125 287.976562 361.855469 287.976562 C 361.214844 287.976562 360.492188 288.203125 360.234375 288.46875 C 359.980469 288.738281 358.65625 289.140625 357.289062 289.320312 C 353.449219 289.902344 348.5 290.933594 347.308594 291.472656 C 346.710938 291.738281 344.703125 292.277344 342.828125 292.636719 C 335.445312 294.246094 332.96875 294.828125 331.648438 295.414062 C 330.921875 295.769531 329.984375 296.039062 329.515625 296.039062 C 328.105469 296.039062 318.847656 298.277344 315.308594 299.441406 C 314.238281 299.800781 313.003906 300.070312 312.535156 300.070312 C 311.382812 300.070312 305.921875 301.414062 304.9375 301.949219 C 304.46875 302.175781 303.0625 302.535156 301.78125 302.757812 C 298.199219 303.382812 297.386719 304.101562 297.386719 306.789062 C 297.386719 311.355469 295.167969 318.117188 292.523438 321.65625 C 290.390625 324.566406 291.796875 325.285156 296.234375 323.539062 C 297.089844 323.179688 298.410156 322.910156 299.09375 322.910156 C 299.777344 322.910156 300.414062 322.730469 300.542969 322.507812 C 300.714844 322.285156 301.824219 321.96875 303.0625 321.835938 C 305.75 321.476562 310.570312 320.402344 313.171875 319.597656 C 314.238281 319.238281 317.011719 318.613281 319.359375 318.207031 C 321.707031 317.761719 324.4375 317.132812 325.460938 316.820312 C 326.441406 316.460938 327.59375 316.191406 327.9375 316.191406 C 328.277344 316.191406 329.472656 315.925781 330.582031 315.566406 C 331.691406 315.207031 334.421875 314.625 336.640625 314.179688 C 338.859375 313.773438 341.164062 313.238281 341.761719 312.96875 C 342.355469 312.699219 343.679688 312.296875 344.746094 312.117188 C 350.164062 311.085938 355.15625 309.921875 358.996094 308.757812 C 360.105469 308.398438 361.472656 308.132812 361.984375 308.132812 C 363.050781 308.132812 368 307.011719 370.773438 306.160156 C 372.609375 305.578125 374.828125 305.042969 382.71875 303.429688 C 384.726562 303.027344 386.816406 302.488281 387.414062 302.21875 C 388.011719 301.949219 389.546875 301.59375 390.828125 301.367188 C 393.8125 300.875 398.421875 299.847656 401.707031 298.996094 C 404.691406 298.1875 407.339844 297.605469 411.734375 296.667969 C 413.484375 296.308594 415.914062 295.726562 417.066406 295.367188 C 420.265625 294.472656 422.785156 293.890625 425.386719 293.53125 C 426.625 293.351562 428.160156 292.949219 428.757812 292.636719 C 429.355469 292.277344 430.164062 292.007812 430.550781 292.007812 C 430.933594 292.007812 431.742188 291.605469 432.382812 291.066406 L 433.492188 290.171875 L 433.492188 257.835938 C 433.492188 238.175781 433.664062 225.230469 433.921875 224.828125 C 434.261719 224.246094 436.179688 224.15625 446.59375 224.113281 C 453.332031 224.113281 459.433594 223.933594 460.117188 223.753906 C 462.71875 223.082031 462.890625 222.320312 462.933594 213.140625 C 462.933594 205.257812 462.890625 204.765625 462.039062 203.957031 C 461.183594 203.152344 460.203125 203.105469 447.660156 202.972656 C 437.675781 202.882812 434.089844 202.703125 433.835938 202.300781 C 433.664062 201.988281 433.492188 195.226562 433.492188 187.207031 L 433.492188 172.605469 L 432.257812 171.085938 L 431.019531 169.515625 L 422.144531 169.425781 C 417.238281 169.382812 412.929688 169.472656 412.585938 169.605469 Z M 421.546875 197.734375 C 423.296875 198.136719 424.917969 198.628906 425.171875 198.898438 C 425.386719 199.121094 426.238281 199.300781 427.09375 199.300781 C 429.609375 199.300781 429.695312 199.523438 429.566406 205.167969 L 429.441406 210.273438 L 427.519531 210.136719 C 426.453125 210.050781 424.917969 209.78125 424.105469 209.554688 C 422.101562 208.929688 417.792969 207.808594 416.214844 207.496094 C 413.996094 207.046875 413.867188 206.734375 413.867188 201.761719 C 413.867188 199.253906 413.996094 197.0625 414.207031 196.882812 C 414.59375 196.433594 417.40625 196.746094 421.546875 197.734375 Z M 421.546875 197.734375 "/>
		<path style=" stroke:none;fill-rule:nonzero;fill:#4ADE80;fill-opacity:1;"
			  d="M 211.199219 317.851562 C 211.242188 318.433594 212.609375 319.957031 213.84375 320.804688 C 214.527344 321.253906 215.808594 321.566406 216.960938 321.566406 C 218.878906 321.566406 219.5625 320.851562 218.15625 320.402344 C 217.726562 320.269531 216.191406 319.550781 214.742188 318.835938 C 212.011719 317.492188 211.199219 317.269531 211.199219 317.851562 Z M 211.199219 317.851562 "/>
		<path style=" stroke:none;fill-rule:nonzero;fill:#4ADE80;fill-opacity:1;"
			  d="M 231.382812 360.890625 C 229.71875 361.070312 228.011719 363.128906 226.132812 367.292969 C 225.40625 368.863281 224.640625 370.472656 224.425781 370.832031 C 224.214844 371.191406 221.78125 376.25 219.007812 382.03125 C 216.277344 387.808594 213.886719 392.644531 213.761719 392.777344 C 213.632812 392.914062 213.078125 394.121094 212.523438 395.464844 C 211.96875 396.808594 211.371094 398.152344 211.15625 398.421875 C 210.089844 399.808594 202.667969 415.933594 202.667969 416.828125 C 202.667969 419.246094 207.53125 420.457031 211.199219 418.933594 C 212.90625 418.21875 214.355469 416.15625 216.449219 411.363281 C 216.875 410.378906 217.429688 409.257812 217.644531 408.902344 C 217.855469 408.542969 218.792969 406.660156 219.734375 404.734375 C 222.507812 399.003906 225.40625 394.570312 226.21875 394.703125 C 226.601562 394.75 228.863281 396.765625 231.210938 399.136719 C 234.113281 402.136719 235.777344 403.527344 236.457031 403.527344 C 237.097656 403.527344 238.675781 402.226562 241.195312 399.71875 C 244.992188 395.824219 246.101562 395.285156 246.828125 396.765625 C 247.082031 397.210938 248.0625 399.316406 249.089844 401.378906 C 250.113281 403.394531 251.09375 405.40625 251.308594 405.765625 C 252.074219 407.066406 255.574219 415.035156 255.574219 415.484375 C 255.574219 415.753906 256.339844 416.785156 257.28125 417.8125 L 258.988281 419.648438 L 262.785156 419.648438 C 265.984375 419.648438 266.710938 419.515625 267.691406 418.710938 C 269.054688 417.589844 268.96875 416.605469 267.347656 413.917969 C 266.792969 413.023438 265.855469 411.140625 265.214844 409.796875 C 264.105469 407.421875 261.71875 402.632812 258.773438 397.03125 C 258.003906 395.554688 256.554688 392.734375 255.617188 390.761719 C 254.632812 388.792969 253.183594 385.96875 252.375 384.492188 C 250.835938 381.582031 247.851562 375.625 246.273438 372.222656 C 245.761719 371.101562 245.121094 369.847656 244.90625 369.488281 C 244.691406 369.128906 243.796875 367.339844 242.902344 365.546875 C 241.921875 363.53125 240.894531 362.011719 240.214844 361.652344 C 239.148438 361.070312 233.898438 360.621094 231.382812 360.890625 Z M 238.335938 378.355469 C 239.488281 380.863281 240.683594 383.148438 240.980469 383.460938 C 241.28125 383.777344 241.492188 384.449219 241.492188 385.03125 C 241.492188 386.058594 241.40625 386.058594 236.929688 386.058594 C 234.367188 386.058594 231.9375 386.195312 231.464844 386.328125 C 230.996094 386.464844 230.273438 386.285156 229.800781 385.925781 C 229.035156 385.34375 229.121094 385.074219 231.464844 379.96875 C 232.832031 377.058594 234.113281 374.371094 234.367188 374.058594 C 235.265625 372.847656 236.203125 373.878906 238.335938 378.355469 Z M 238.335938 378.355469 "/>
		<path style=" stroke:none;fill-rule:nonzero;fill:#4ADE80;fill-opacity:1;"
			  d="M 152.234375 361.832031 C 149.460938 362.054688 148.308594 362.324219 147.753906 362.90625 C 147.03125 363.667969 146.988281 365.277344 147.113281 390.226562 C 147.199219 404.824219 147.328125 417.097656 147.457031 417.546875 C 147.796875 418.664062 150.144531 419.648438 152.449219 419.648438 C 154.964844 419.648438 158.207031 418.441406 158.804688 417.230469 C 159.148438 416.605469 159.359375 412.976562 159.445312 406.035156 C 159.53125 396.449219 159.914062 393.40625 160.683594 395.734375 C 160.851562 396.183594 161.40625 397.570312 161.921875 398.824219 C 162.433594 400.035156 163.03125 401.554688 163.199219 402.183594 C 163.5 403.304688 165.546875 408.183594 166.613281 410.246094 C 166.910156 410.828125 167.636719 411.453125 168.191406 411.632812 C 168.746094 411.8125 169.984375 412.171875 170.964844 412.484375 C 172.542969 412.976562 173.054688 412.976562 174.804688 412.261719 C 175.914062 411.8125 177.195312 411.050781 177.621094 410.511719 C 178.390625 409.527344 180.054688 405.945312 180.054688 405.230469 C 180.054688 404.734375 181.121094 402.09375 181.886719 400.617188 C 182.144531 400.125 182.742188 398.464844 183.296875 396.898438 C 183.808594 395.332031 184.40625 394.078125 184.574219 394.121094 C 184.789062 394.121094 185.046875 399.226562 185.171875 405.496094 C 185.429688 419.558594 185.046875 418.753906 191.445312 418.753906 C 198.230469 418.753906 197.546875 421.890625 197.546875 390.582031 C 197.546875 358.652344 198.316406 361.875 190.550781 361.875 C 184.917969 361.875 184.492188 362.011719 183.339844 364.339844 C 181.929688 367.292969 180.054688 371.726562 180.054688 372.132812 C 180.054688 372.398438 179.753906 373.339844 179.371094 374.28125 C 178.988281 375.222656 178.433594 376.566406 178.132812 377.328125 C 177.835938 378.042969 177.367188 379.253906 177.066406 380.015625 C 176.769531 380.730469 176.382812 381.941406 176.171875 382.703125 C 176 383.417969 175.53125 384.941406 175.105469 386.058594 C 174.71875 387.179688 173.996094 389.285156 173.484375 390.71875 C 173.011719 392.195312 172.375 393.449219 172.117188 393.539062 C 171.863281 393.628906 171.222656 392.332031 170.710938 390.671875 C 170.199219 389.015625 169.515625 387 169.171875 386.285156 C 167.808594 383.148438 167.253906 381.625 167.253906 381.179688 C 167.253906 380.730469 167.039062 380.148438 164.992188 375.3125 C 164.394531 373.96875 163.796875 372.355469 163.667969 371.726562 C 163.5 371.101562 163.070312 369.980469 162.773438 369.265625 C 162.433594 368.503906 161.707031 366.800781 161.109375 365.414062 C 160.511719 364.023438 159.785156 362.726562 159.488281 362.457031 C 158.632812 361.742188 156.332031 361.5625 152.234375 361.832031 Z M 152.234375 361.832031 "/>
		<path style=" stroke:none;fill-rule:nonzero;fill:#4ADE80;fill-opacity:1;"
			  d="M 268.160156 363.21875 C 267.222656 365.144531 267.265625 372.714844 268.246094 373.566406 C 268.757812 374.011719 270.933594 374.238281 276.222656 374.414062 L 283.519531 374.640625 L 283.648438 396.273438 L 283.734375 417.859375 L 285.140625 418.753906 C 287.148438 420.054688 293.375 420.054688 294.996094 418.710938 L 296.105469 417.8125 L 296.105469 396.449219 C 296.105469 384.714844 296.277344 374.820312 296.449219 374.503906 C 296.746094 374.101562 298.496094 373.96875 303.742188 374.058594 C 312.191406 374.238281 311.894531 374.460938 311.894531 368.144531 C 311.894531 365.011719 311.722656 363.621094 311.210938 362.859375 L 310.570312 361.875 L 268.84375 361.875 Z M 268.160156 363.21875 "/>
		<path style=" stroke:none;fill-rule:nonzero;fill:#4ADE80;fill-opacity:1;"
			  d="M 320.726562 363.128906 L 319.574219 364.382812 L 319.574219 417.722656 L 320.597656 418.710938 L 321.621094 419.738281 L 337.578125 419.605469 C 348.246094 419.515625 353.960938 419.335938 354.988281 418.976562 C 356.777344 418.351562 357.035156 417.589844 357.078125 412.351562 C 357.121094 408.722656 357.035156 408.320312 356.054688 407.332031 L 355.03125 406.214844 L 343.722656 406.214844 C 337.492188 406.214844 332.375 406.078125 332.246094 405.855469 C 332.160156 405.675781 332.203125 403.304688 332.332031 400.617188 L 332.585938 395.6875 L 341.886719 395.554688 L 351.1875 395.464844 L 352 393.539062 C 353.492188 390.089844 352.980469 385.210938 350.976562 383.730469 C 350.71875 383.550781 346.539062 383.371094 341.675781 383.371094 C 335.914062 383.371094 332.757812 383.195312 332.585938 382.878906 C 332.117188 382.117188 331.863281 375.582031 332.289062 374.953125 C 332.542969 374.550781 335.359375 374.371094 343.851562 374.28125 L 355.03125 374.191406 L 355.839844 373.070312 C 356.523438 372.175781 356.691406 371.191406 356.691406 367.832031 C 356.691406 361.472656 358.015625 361.875 338.175781 361.875 L 321.878906 361.875 Z M 320.726562 363.128906 "/>
		<path style=" stroke:none;fill-rule:nonzero;fill:#4ADE80;fill-opacity:1;"
			  d="M 209.492188 430.265625 C 208.171875 430.535156 204.800781 432.90625 203.945312 434.160156 C 201.8125 437.25 201.34375 440.921875 202.625 444.460938 C 204.246094 448.941406 208.257812 451.894531 212.609375 451.851562 C 216.019531 451.851562 218.453125 450.597656 220.757812 447.6875 C 222.378906 445.714844 222.507812 445.3125 222.507812 442.9375 C 222.507812 441.507812 222.335938 440.164062 222.164062 439.9375 C 221.953125 439.757812 219.605469 439.492188 216.960938 439.445312 L 212.136719 439.265625 L 211.839844 440.65625 C 211.328125 443.207031 211.839844 443.835938 214.398438 443.835938 C 217.089844 443.835938 217.515625 444.238281 216.191406 445.492188 C 213.929688 447.640625 210.175781 447.058594 208.214844 444.191406 C 205.609375 440.476562 207.359375 436.578125 212.136719 435.28125 C 214.015625 434.789062 214.570312 434.921875 218.113281 436.9375 C 220.246094 438.148438 222.59375 436.132812 221.398438 434.070312 C 221.097656 433.578125 219.945312 432.546875 218.835938 431.789062 C 217.128906 430.621094 216.277344 430.355469 213.675781 430.21875 C 211.96875 430.085938 210.089844 430.128906 209.492188 430.265625 Z M 209.492188 430.265625 "/>
		<path style=" stroke:none;fill-rule:nonzero;fill:#4ADE80;fill-opacity:1;"
			  d="M 254.207031 430.980469 C 253.609375 431.5625 252.628906 432.953125 251.988281 434.070312 C 250.367188 437.027344 249.726562 437.476562 249.171875 436.175781 C 248.617188 434.789062 247.980469 433.757812 246.441406 431.921875 C 245.417969 430.667969 244.863281 430.398438 243.542969 430.398438 C 242.21875 430.398438 241.792969 430.621094 241.40625 431.472656 C 241.023438 432.371094 241.109375 432.953125 241.921875 434.519531 C 242.433594 435.59375 243.371094 437.027344 244.054688 437.789062 C 244.691406 438.503906 245.84375 440.027344 246.570312 441.101562 C 247.808594 442.984375 247.894531 443.296875 247.894531 447.238281 C 247.894531 450.910156 247.980469 451.492188 248.703125 451.894531 C 249.941406 452.566406 251.136719 452.433594 251.777344 451.582031 C 252.160156 451.136719 252.457031 449.210938 252.628906 446.566406 C 252.886719 442.3125 252.886719 442.222656 254.933594 439.132812 C 256.085938 437.386719 257.535156 435.144531 258.21875 434.117188 C 259.542969 432.054688 259.457031 431.027344 257.835938 430.355469 C 256.214844 429.726562 255.359375 429.863281 254.207031 430.980469 Z M 254.207031 430.980469 "/>
		<path style=" stroke:none;fill-rule:nonzero;fill:#4ADE80;fill-opacity:1;"
			  d="M 279.339844 430.535156 C 278.65625 431.027344 278.613281 432.101562 278.699219 441.328125 L 278.828125 451.628906 L 280.234375 451.984375 C 281.300781 452.300781 281.941406 452.210938 282.710938 451.671875 C 283.691406 451 283.734375 450.730469 283.734375 446.613281 C 283.734375 444.238281 283.902344 441.953125 284.160156 441.59375 C 284.585938 440.878906 284.628906 440.96875 285.140625 443.164062 C 285.609375 445.042969 286.59375 447.460938 287.0625 447.957031 C 287.359375 448.269531 287.574219 448.804688 287.574219 449.210938 C 287.574219 449.566406 288 450.464844 288.554688 451.179688 C 289.792969 452.746094 290.945312 452.523438 291.882812 450.464844 C 294.058594 445.851562 295.082031 443.433594 295.507812 442.042969 C 295.894531 440.65625 295.980469 441.058594 296.191406 445.582031 C 296.363281 450.285156 296.492188 450.777344 297.386719 451.539062 C 298.410156 452.433594 299.988281 452.34375 301.097656 451.359375 C 301.78125 450.777344 301.867188 432.59375 301.226562 431.292969 C 300.757812 430.355469 298.367188 429.726562 296.789062 430.128906 C 295.980469 430.308594 295.296875 431.429688 293.632812 434.96875 C 292.480469 437.519531 291.414062 440.027344 291.242188 440.566406 C 290.988281 441.328125 289.75 442.355469 289.535156 441.953125 C 289.238281 441.371094 286.25 434.652344 285.523438 432.953125 C 284.542969 430.757812 283.433594 429.949219 281.214844 429.949219 C 280.574219 429.949219 279.722656 430.21875 279.339844 430.535156 Z M 279.339844 430.535156 "/>
		<path style=" stroke:none;fill-rule:nonzero;fill:#4ADE80;fill-opacity:1;"
			  d="M 164.820312 438.414062 C 151.808594 438.683594 148.480469 438.953125 152.148438 439.582031 C 153.089844 439.714844 154.410156 440.027344 155.09375 440.25 C 157.011719 440.878906 175.230469 442.535156 178.390625 442.402344 C 181.078125 442.265625 181.121094 442.265625 181.246094 440.921875 C 181.375 439.222656 180.949219 438.59375 179.625 438.371094 C 179.03125 438.28125 172.375 438.28125 164.820312 438.414062 Z M 164.820312 438.414062 "/>
		<path style=" stroke:none;fill-rule:nonzero;fill:#4ADE80;fill-opacity:1;"
			  d="M 322.6875 438.371094 C 322.003906 438.820312 321.621094 440.566406 321.921875 441.640625 C 322.21875 442.582031 322.390625 442.625 327.851562 442.355469 C 336.980469 441.910156 348.628906 440.789062 349.183594 440.296875 C 349.484375 440.027344 350.761719 439.667969 352.042969 439.445312 C 353.960938 439.132812 353.109375 438.996094 346.878906 438.773438 C 333.398438 438.238281 323.15625 438.101562 322.6875 438.371094 Z M 322.6875 438.371094 "/>
	</g>
</svg>
