<?xml version="1.0" standalone="no"?>
<!DOCTYPE svg PUBLIC "-//W3C//DTD SVG 20010904//EN"
 "http://www.w3.org/TR/2001/REC-SVG-20010904/DTD/svg10.dtd">
<svg version="1.0" xmlns="http://www.w3.org/2000/svg"
 width="1200.000000pt" height="1143.000000pt" viewBox="0 0 1200.000000 1143.000000"
 preserveAspectRatio="xMidYMid meet">
<metadata>
Created by potrace 1.10, written by Peter Selinger 2001-2011
</metadata>
<g transform="translate(0.000000,1143.000000) scale(0.100000,-0.100000)"
fill="#000000" stroke="none">
<path d="M5685 10516 c-5 -2 -84 -9 -175 -16 -91 -6 -177 -16 -191 -22 -15 -5
-60 -13 -100 -18 -145 -16 -317 -51 -376 -76 -17 -8 -41 -14 -52 -14 -29 0
-167 -40 -246 -71 -11 -4 -31 -11 -45 -14 -25 -6 -78 -26 -135 -50 -16 -7 -50
-21 -75 -30 -87 -34 -346 -158 -405 -195 -22 -13 -58 -34 -80 -45 -22 -11 -58
-31 -80 -45 -23 -14 -48 -29 -57 -35 -42 -26 -260 -177 -268 -185 -3 -3 -21
-17 -40 -30 -153 -105 -544 -482 -685 -660 -32 -41 -62 -77 -65 -80 -23 -19
-234 -320 -253 -360 -4 -8 -16 -28 -27 -45 -11 -16 -30 -50 -43 -75 -12 -25
-34 -63 -48 -85 -14 -22 -33 -60 -44 -85 -11 -25 -32 -69 -47 -98 -15 -29 -28
-59 -28 -66 0 -7 -7 -19 -15 -26 -8 -7 -15 -26 -15 -42 l0 -30 56 7 c30 3 94
19 142 35 48 15 129 36 180 46 94 17 110 27 135 84 4 8 15 27 25 42 268 424
459 653 812 974 55 50 334 264 344 264 3 0 38 22 78 48 77 51 186 115 253 147
22 11 46 26 53 33 7 6 18 12 23 12 5 0 50 20 101 44 51 24 109 49 128 56 19 7
53 21 75 31 100 43 114 49 129 49 8 0 30 6 48 14 68 29 115 44 188 61 41 9 93
23 115 30 50 17 160 39 295 60 58 9 137 21 175 28 45 8 192 12 415 12 223 0
370 -4 415 -12 39 -7 117 -19 175 -28 58 -9 125 -21 150 -26 111 -24 128 -28
151 -38 13 -5 58 -17 99 -26 41 -10 90 -23 108 -31 18 -8 37 -14 43 -14 6 0
25 -6 42 -13 18 -8 59 -22 92 -32 33 -10 69 -24 80 -30 11 -7 47 -21 80 -33
56 -19 142 -59 225 -102 19 -10 59 -31 89 -45 29 -15 82 -44 118 -66 35 -21
65 -39 68 -39 2 0 34 -21 72 -47 37 -25 100 -69 140 -95 39 -27 91 -66 115
-87 24 -20 72 -59 108 -86 144 -108 509 -498 614 -655 17 -25 35 -49 41 -55 6
-5 36 -48 66 -95 80 -123 91 -141 112 -179 65 -119 83 -137 147 -145 60 -8
166 -34 189 -47 28 -14 115 -37 169 -44 51 -7 52 -6 52 18 0 24 -68 181 -111
257 -10 19 -31 60 -46 90 -14 30 -29 57 -33 60 -4 3 -17 25 -31 50 -13 25 -36
61 -51 81 -16 20 -28 40 -28 43 0 10 -124 193 -180 265 -11 14 -31 40 -43 58
-22 30 -101 121 -212 243 -60 66 -208 213 -256 255 -123 108 -182 156 -312
252 -200 148 -360 250 -542 343 -44 23 -87 45 -95 50 -22 13 -198 94 -250 114
-25 10 -63 26 -85 36 -22 10 -56 23 -75 29 -19 5 -69 22 -110 37 -88 30 -166
52 -232 64 -27 5 -54 12 -60 17 -18 11 -110 32 -193 44 -38 5 -83 14 -99 19
-16 6 -45 10 -65 10 -20 0 -52 5 -71 11 -63 18 -310 39 -530 44 -118 3 -219 3
-225 1z"/>
<path d="M5653 9113 c-13 -2 -43 -23 -68 -46 -51 -46 -66 -89 -53 -147 6 -31
4 -38 -22 -60 -73 -64 -119 -100 -126 -100 -4 0 -20 12 -35 26 -37 35 -63 25
-89 -34 -17 -38 -20 -59 -15 -107 7 -72 7 -118 -1 -334 -5 -163 -6 -165 -35
-200 -24 -30 -29 -44 -29 -91 0 -31 9 -84 21 -118 17 -50 31 -70 72 -106 44
-37 55 -54 70 -105 9 -33 17 -69 17 -81 0 -34 46 -96 112 -150 35 -28 80 -66
102 -83 21 -18 43 -34 50 -36 6 -2 26 -16 45 -30 39 -30 176 -91 203 -91 57 0
276 141 399 257 56 53 109 152 109 204 0 57 14 84 64 118 67 47 87 80 94 164
11 112 3 147 -37 174 l-33 22 -2 307 -1 307 -26 20 c-26 19 -28 19 -58 1 -25
-15 -35 -16 -49 -7 -90 63 -205 113 -261 113 -31 0 -142 30 -158 43 -7 5 -13
21 -13 36 0 53 -97 127 -177 135 -26 2 -58 2 -70 -1z m378 -654 c10 -5 38 -9
64 -9 49 0 115 -22 115 -39 0 -5 -19 -12 -42 -15 -24 -3 -61 -8 -83 -11 -178
-26 -218 -27 -327 -16 -62 7 -135 14 -163 17 -139 13 -124 41 35 65 41 7 95
15 120 20 55 9 257 1 281 -12z"/>
<path d="M9145 7822 c-106 -6 -95 137 -95 -1262 l0 -1227 21 -19 c18 -16 37
-19 126 -19 105 0 105 0 129 30 l24 30 0 1211 0 1211 -22 20 c-25 22 -84 31
-183 25z"/>
<path d="M2413 7801 l-23 -19 0 -1220 0 -1221 26 -20 c23 -18 41 -21 116 -21
75 0 95 3 119 21 l29 21 -2 1220 -3 1220 -24 19 c-34 28 -205 27 -238 0z"/>
<path d="M2917 7802 c-16 -17 -17 -117 -17 -1239 l0 -1220 23 -21 c20 -19 35
-22 117 -22 84 0 96 2 126 25 l34 26 2 637 3 637 245 3 c304 4 368 -1 380 -31
10 -27 89 -144 147 -218 87 -113 170 -218 212 -270 23 -30 57 -72 75 -93 38
-48 111 -117 139 -133 43 -24 63 -19 187 54 25 14 99 67 165 116 124 93 129
97 206 166 25 23 51 41 56 41 5 0 17 -15 25 -32 8 -18 24 -51 34 -73 10 -22
22 -42 25 -45 4 -3 19 -27 33 -55 15 -27 36 -63 47 -80 41 -65 41 -69 34 -390
l-7 -310 -84 -127 c-46 -69 -89 -138 -95 -152 -7 -14 -16 -26 -20 -26 -7 0
-23 -51 -18 -60 5 -8 30 0 89 27 30 15 73 27 95 27 37 1 40 -1 38 -24 -6 -56
-4 -212 2 -218 11 -11 25 22 25 61 0 70 92 213 182 282 36 28 150 83 203 98
33 10 74 22 92 28 24 7 46 6 90 -7 66 -19 98 -41 127 -87 19 -30 20 -51 24
-422 3 -384 4 -390 25 -407 11 -9 37 -19 57 -22 19 -3 79 -34 133 -70 210
-138 340 -140 516 -8 53 39 131 142 154 203 13 36 36 151 38 194 1 18 -30 189
-41 230 -25 90 -99 216 -229 390 -17 22 -38 51 -48 65 -22 29 -31 159 -32 463
-1 216 1 229 45 287 13 17 77 134 111 203 13 26 26 47 29 47 3 0 43 -34 89
-75 47 -41 89 -75 93 -75 5 0 20 -11 34 -24 14 -12 43 -34 64 -46 22 -13 41
-27 44 -31 3 -3 35 -27 73 -52 78 -54 152 -83 187 -74 31 8 117 80 154 127 14
19 51 64 81 100 30 36 101 126 157 200 57 74 108 140 114 145 5 6 32 44 59 85
26 41 55 81 63 88 12 9 86 12 294 12 264 0 278 -1 288 -19 6 -13 10 -227 10
-624 0 -623 2 -657 40 -677 10 -6 61 -10 112 -10 73 0 98 4 115 18 l21 17 4
1221 c3 1190 3 1222 -16 1243 -17 19 -30 21 -121 21 -102 0 -105 -1 -147 -43
-1 -1 -5 -193 -8 -427 l-5 -425 -784 -5 c-615 -4 -785 -8 -789 -17 -2 -7 1
-13 6 -13 16 0 108 -131 121 -172 7 -20 21 -48 32 -62 l20 -26 265 0 c205 0
264 -3 264 -12 0 -13 -26 -42 -179 -204 -116 -122 -146 -157 -160 -183 -17
-30 -34 -15 -73 64 -16 33 -38 74 -48 90 -11 17 -24 39 -30 50 -14 28 -34 59
-41 65 -4 3 -20 33 -37 66 -114 237 -263 398 -422 457 -25 9 -55 17 -67 17
-19 0 -91 19 -158 41 -16 6 -70 21 -120 33 -136 35 -175 65 -175 133 0 22 -3
24 -27 19 -16 -4 -39 -15 -53 -24 -53 -37 -147 -72 -193 -72 -47 0 -135 30
-198 67 -32 19 -65 33 -73 30 -8 -3 -17 -19 -21 -36 -10 -48 -66 -84 -180
-117 -33 -9 -73 -23 -90 -30 -16 -7 -59 -20 -95 -29 -200 -51 -268 -86 -368
-190 -70 -73 -98 -111 -158 -217 -12 -21 -32 -52 -45 -70 -14 -18 -36 -54 -49
-80 -14 -27 -28 -48 -31 -48 -3 0 -15 -19 -28 -42 -12 -24 -31 -56 -41 -73
-11 -16 -26 -45 -34 -62 -18 -40 -38 -42 -61 -7 -9 14 -24 33 -33 43 -9 9 -35
37 -56 61 -22 25 -78 87 -125 138 -47 52 -87 97 -89 101 -3 9 205 21 369 21
77 0 120 4 131 13 15 12 78 103 78 113 0 3 23 35 50 71 28 37 49 71 47 77 -3
8 -241 12 -785 14 l-782 2 0 418 0 418 -29 32 -30 32 -104 0 c-88 0 -106 -3
-120 -18z"/>
<path d="M1660 7638 c-57 -48 -55 -33 -60 -397 l-5 -336 -336 -5 c-252 -4
-340 -8 -351 -18 -27 -22 -38 -95 -38 -247 l0 -147 29 -29 29 -29 319 0 c235
0 322 -3 331 -12 9 -9 12 -150 12 -573 0 -700 6 -871 32 -897 31 -31 87 -23
184 27 47 25 90 45 95 45 5 0 41 16 80 35 39 19 78 35 86 35 8 0 38 11 66 24
29 13 73 33 100 44 49 22 60 39 30 48 -20 6 -122 53 -124 57 -1 1 -3 513 -5
1137 -2 624 -6 1149 -9 1165 -3 17 -15 41 -26 55 -21 25 -22 25 -223 28 -154
2 -205 0 -216 -10z m390 -713 l0 -115 -27 -6 c-16 -3 -50 -12 -78 -20 -130
-35 -174 -44 -208 -44 -42 0 -43 2 -51 122 -4 66 -2 79 15 97 11 12 27 21 36
21 8 0 36 7 62 15 78 25 164 44 209 44 l42 1 0 -115z"/>
<path d="M9670 7643 c-8 -3 -22 -16 -32 -27 -16 -20 -17 -91 -18 -1178 l0
-1157 -22 -15 c-12 -9 -38 -19 -58 -22 -19 -4 -44 -11 -55 -17 -11 -6 -38 -14
-60 -18 -106 -20 -198 -40 -350 -78 -22 -6 -76 -17 -120 -26 -44 -9 -93 -20
-110 -26 -32 -12 -61 -18 -195 -43 -47 -9 -98 -21 -114 -26 -16 -6 -41 -10
-55 -10 -15 0 -32 -5 -38 -11 -6 -6 -37 -15 -69 -19 -90 -13 -206 -36 -234
-48 -14 -6 -61 -18 -105 -26 -173 -36 -231 -49 -262 -62 -17 -8 -39 -14 -50
-14 -33 0 -250 -50 -333 -76 -25 -8 -54 -14 -65 -14 -27 0 -155 -30 -178 -42
-11 -5 -44 -13 -74 -18 -84 -14 -103 -30 -103 -90 0 -102 -52 -253 -114 -332
-50 -65 -17 -81 87 -42 20 8 51 14 67 14 16 0 31 4 34 9 4 5 30 12 59 15 63 8
176 32 237 50 25 8 90 22 145 31 55 10 119 24 143 31 23 8 50 14 58 14 8 0 36
6 62 14 26 8 90 21 142 31 52 9 106 21 120 27 14 6 45 15 70 19 127 23 244 49
334 75 26 8 58 14 70 14 25 0 141 25 206 44 43 13 95 25 280 61 47 9 96 21
110 27 14 6 50 14 80 19 70 11 178 34 255 53 70 18 132 31 235 52 41 8 98 21
125 29 75 20 134 33 195 41 29 4 65 13 79 20 14 8 33 14 42 14 9 0 28 9 43 21
l26 20 0 722 c0 439 4 728 10 737 8 13 53 15 297 16 158 0 301 4 317 8 61 15
65 32 66 237 0 176 -1 187 -21 205 -20 18 -43 19 -337 22 -234 2 -318 6 -324
15 -4 7 -8 158 -8 337 l0 326 -29 34 -29 35 -208 2 c-115 1 -216 -1 -224 -4z
m210 -628 c41 -9 79 -20 85 -26 5 -5 25 -9 45 -9 59 0 61 -5 58 -131 l-3 -114
-45 3 c-25 2 -61 8 -80 13 -47 14 -148 39 -185 46 -52 10 -55 17 -55 128 0 56
3 105 8 109 9 10 75 3 172 -19z"/>
<path d="M4950 4333 c1 -13 33 -47 62 -66 16 -10 46 -17 73 -17 45 0 61 16 28
26 -10 3 -46 19 -80 35 -64 30 -83 35 -83 22z"/>
<path d="M5423 3372 c-39 -4 -79 -50 -123 -143 -17 -35 -35 -71 -40 -79 -5 -8
-62 -121 -127 -250 -64 -129 -120 -237 -123 -240 -3 -3 -16 -30 -29 -60 -13
-30 -27 -60 -32 -66 -25 -31 -199 -391 -199 -411 0 -54 114 -81 200 -47 40 16
74 62 123 169 10 22 23 47 28 55 5 8 27 50 49 93 65 128 133 227 152 224 9 -1
62 -46 117 -99 68 -67 107 -98 123 -98 15 0 52 29 111 85 89 87 115 99 132 66
6 -10 29 -57 53 -103 24 -45 47 -90 52 -98 18 -29 100 -207 100 -217 0 -6 18
-29 40 -52 l40 -41 89 0 c75 0 92 3 115 21 32 25 30 47 -8 107 -13 20 -35 62
-50 92 -26 53 -82 160 -151 285 -18 33 -52 96 -74 140 -23 44 -57 107 -76 140
-36 65 -106 198 -143 274 -12 25 -27 53 -32 61 -5 8 -26 48 -47 88 -23 45 -47
79 -63 87 -25 13 -148 23 -207 17z m163 -390 c27 -56 55 -107 62 -114 7 -7 12
-22 12 -35 0 -23 -2 -23 -107 -23 -60 0 -117 -3 -128 -6 -11 -3 -28 1 -39 9
-18 13 -16 19 39 133 32 65 62 125 68 132 21 27 43 4 93 -96z"/>
<path d="M3568 3351 c-65 -5 -92 -11 -105 -24 -17 -17 -18 -53 -15 -610 2
-326 5 -600 8 -610 8 -25 63 -47 117 -47 59 0 135 27 149 54 8 14 13 95 15
250 2 214 11 282 29 230 4 -10 17 -41 29 -69 12 -27 26 -61 30 -75 7 -25 55
-134 80 -180 7 -13 24 -27 37 -31 13 -4 42 -12 65 -19 37 -11 49 -11 90 5 26
10 56 27 66 39 18 22 57 102 57 118 0 11 25 70 43 103 6 11 20 48 33 83 12 35
26 63 30 62 5 0 11 -114 14 -254 6 -314 -3 -296 147 -296 159 0 143 -70 143
629 0 713 18 641 -164 641 -132 0 -142 -3 -169 -55 -33 -66 -77 -165 -77 -174
0 -6 -7 -27 -16 -48 -9 -21 -22 -51 -29 -68 -7 -16 -18 -43 -25 -60 -7 -16
-16 -43 -21 -60 -4 -16 -15 -50 -25 -75 -9 -25 -26 -72 -38 -104 -11 -33 -26
-61 -32 -63 -6 -2 -21 27 -33 64 -12 37 -28 82 -36 98 -32 70 -45 104 -45 114
0 10 -5 23 -53 131 -14 30 -28 66 -31 80 -4 14 -14 39 -21 55 -8 17 -25 55
-39 86 -14 31 -31 60 -38 66 -20 16 -74 20 -170 14z"/>
<path d="M6285 3320 c-22 -43 -21 -212 2 -231 12 -10 63 -15 187 -19 l171 -5
3 -483 2 -482 33 -20 c47 -29 193 -29 231 1 l26 20 0 477 c0 262 4 483 8 490
7 9 48 12 171 10 198 -4 191 -9 191 132 0 70 -4 101 -16 118 l-15 22 -489 0
-489 0 -16 -30z"/>
<path d="M7517 3322 l-27 -28 0 -595 0 -596 24 -22 24 -23 374 3 c250 2 384 6
408 14 42 14 48 31 49 148 1 81 -1 90 -24 112 l-24 25 -265 0 c-146 0 -266 3
-269 8 -2 4 -1 57 2 117 l6 110 218 3 218 2 19 43 c35 77 23 186 -24 219 -6 4
-104 8 -218 8 -135 0 -209 4 -213 11 -11 17 -17 163 -7 177 6 9 72 13 271 15
l262 2 19 25 c16 20 20 42 20 117 0 142 31 133 -434 133 l-382 0 -27 -28z"/>
<path d="M4910 1823 c-31 -6 -110 -59 -130 -87 -50 -69 -61 -151 -31 -230 38
-100 132 -166 234 -165 80 0 137 28 191 93 38 44 41 53 41 106 0 32 -4 62 -8
67 -5 4 -60 10 -122 11 l-113 4 -7 -31 c-12 -57 0 -71 60 -71 63 0 73 -9 42
-37 -53 -48 -141 -35 -187 29 -61 83 -20 170 92 199 44 11 57 8 140 -37 50
-27 105 18 77 64 -7 11 -34 34 -60 51 -40 26 -60 32 -121 35 -40 3 -84 2 -98
-1z"/>
<path d="M5958 1807 c-14 -13 -37 -44 -52 -69 -38 -66 -53 -76 -66 -47 -13 31
-28 54 -64 95 -24 28 -37 34 -68 34 -31 0 -41 -5 -50 -24 -9 -20 -7 -33 12
-68 12 -24 34 -56 50 -73 15 -16 42 -50 59 -74 29 -42 31 -49 31 -137 0 -82 2
-95 19 -104 29 -15 57 -12 72 7 9 10 16 53 20 112 6 95 6 97 54 166 27 39 61
89 77 112 31 46 29 69 -9 84 -38 14 -58 11 -85 -14z"/>
<path d="M6547 1817 c-16 -11 -17 -35 -15 -241 l3 -230 33 -8 c25 -7 40 -5 58
7 23 15 24 21 24 113 0 53 4 104 10 112 10 16 11 14 23 -35 11 -42 34 -96 45
-107 7 -7 12 -19 12 -28 0 -8 10 -28 23 -44 29 -35 56 -30 78 16 51 103 75
157 85 188 9 31 11 22 16 -79 4 -105 7 -116 28 -133 24 -20 61 -18 87 4 16 13
18 419 3 448 -11 21 -67 35 -104 26 -19 -4 -35 -29 -74 -108 -27 -57 -52 -113
-56 -125 -6 -17 -35 -40 -40 -31 -7 13 -77 163 -94 201 -23 49 -49 67 -101 67
-15 0 -35 -6 -44 -13z"/>
<path d="M3863 1641 c-305 -6 -383 -12 -297 -26 22 -3 53 -10 69 -15 45 -14
472 -51 546 -48 63 3 64 3 67 33 3 38 -7 52 -38 57 -14 2 -170 2 -347 -1z"/>
<path d="M7563 1642 c-16 -10 -25 -49 -18 -73 7 -21 11 -22 139 -16 214 10
487 35 500 46 7 6 37 14 67 19 45 7 25 10 -121 15 -316 12 -556 15 -567 9z"/>
</g>
</svg>
